<svg width="571" height="127" viewBox="0 0 571 127" fill="none" xmlns="http://www.w3.org/2000/svg">
<path d="M56.2677 26.1763C62.4932 10.5587 55.5163 0 55.5163 0C57.4483 8.16305 53.4929 14.5313 41.8621 27.1546C30.2284 39.7778 34.4448 49.0177 34.4448 49.0177C31.9196 47.2197 27.3553 46.0234 16.8039 58.765C6.25397 71.5051 0 62.8686 0 62.8686C1.8237 82.9194 15.2668 78.3394 28.9454 69.9168C42.6239 61.4943 51.996 67.9662 51.996 67.9662C42.7335 53.4481 50.0439 41.7928 56.2678 26.1782L56.2677 26.1763Z" fill="black"/>
<path d="M150.185 48.8407C149.667 49.0132 148.961 49.3597 148.052 49.9087C137.914 56.0115 133.576 58.7861 120.243 62.6517C106.908 66.5173 50.72 76.4215 53.4832 42.0037C53.4832 42.0037 45.2815 63.3493 61.9485 81.7658C61.9471 81.7644 61.9457 81.7644 61.9457 81.763C61.9457 81.763 78.724 102.474 113.421 103.813C108.666 108.815 102.329 113.835 94.7566 118.163C81.9381 125.492 58.2469 125.215 82.072 124.706C119.954 123.895 147.988 87.0938 147.988 87.0938L147.894 87.1067C151.214 84.0211 154.536 80.4435 157.844 76.3158C202.1 21.0839 173.416 33.137 150.184 48.8404L150.185 48.8407Z" fill="black"/>
<path d="M192.475 78.6886C174.606 102.549 159.526 122.794 159.113 123.62C158.493 124.653 160.249 124.963 169.028 124.963H179.667L188.757 112.568L197.743 100.173H225.322L252.9 100.276L262.093 112.568L271.182 124.963H282.028C290.394 124.963 292.564 124.653 292.047 123.62C290.808 121.657 225.425 35.1001 225.218 35.1001C225.012 35.1001 210.344 54.7253 192.475 78.6886ZM231.519 71.9747C234.824 76.4162 237.923 80.6511 238.336 81.2709C238.956 82.3038 235.96 82.6136 225.012 82.6136H211.068L217.988 73.3175C221.81 68.153 225.115 64.0214 225.218 64.0214C225.322 64.0214 228.11 67.6365 231.519 71.9747Z" fill="black"/>
<path d="M329.844 41.1942C318.689 44.6028 311.252 54.4153 311.252 65.674C311.252 75.7964 317.139 84.4728 327.055 88.9143C332.323 91.29 333.149 91.3933 368.578 91.7031C391.715 91.9097 405.763 92.4262 407.622 93.1492C411.34 94.5953 412.786 97.4874 411.96 101.929C410.824 108.333 410.101 108.436 357.733 108.436H311.252V116.699V124.963H360.108C416.505 124.963 415.575 125.066 423.219 116.596C426.73 112.671 428.073 110.089 429.003 105.751C431.172 95.4216 427.557 85.5057 419.81 80.1346C412.063 74.7635 408.861 74.3504 371.677 74.3504C336.351 74.3504 331.807 73.9372 329.844 70.2188C328.605 67.9464 328.501 62.9884 329.638 61.3358C331.807 58.0305 335.112 57.8239 382.419 57.8239H430.036V49.0443V40.2646L381.283 40.3679C354.427 40.3679 331.29 40.781 329.844 41.1942Z" fill="black"/>
<path d="M453.776 83.6477V126.1L462.349 125.79L470.819 125.48L471.129 108.644L471.335 91.9109H484.04C490.96 91.9109 498.294 91.601 500.36 91.2912C504.078 90.6714 504.078 90.6714 505.318 95.5261C508.933 110.09 520.501 120.212 537.441 123.931C543.638 125.274 567.395 126.616 569.668 125.79C570.7 125.377 570.907 123.105 570.7 116.804L570.287 108.437H559.339C535.478 108.334 524.53 102.963 521.534 89.8451C521.018 87.4694 521.638 86.953 528.765 83.751C538.99 79.1029 547.15 71.666 551.075 63.5061C553.451 58.4449 553.967 55.8626 553.967 49.7685V42.3316H545.808H537.648L537.234 49.0455C536.718 57.9284 533.413 62.1633 522.877 67.3278C513.271 72.0792 503.149 74.145 485.279 75.0746L471.439 75.6943L471.129 58.7547L470.819 41.8151L462.349 41.5053L453.776 41.1954V83.6477Z" fill="black"/>
</svg>
